# xmcd CD database file
#
# Track frame offsets:
#	150
#	13947
#	35975
#	64217
#	90825
#	125632
#	143225
#	167577
#	179880
#	195610
#	224472
#	246435
#	272930
#	302887
#
# Disc length: 4474 seconds
#
# Revision: 1
# Processed by: cddbd v1.5.1PL0 Copyright (c) Steve Scherf et al.
# Submitted via: CDex 1.51
#
DISCID=df11780e
DTITLE=SAMPLER - RHYTHM 1 HIGHLIGHTS - CD2(3) - BASS (EMI, BLUE NOTE 2004)
DYEAR=2004
DGENRE=Jazz
TTITLE0=Basically Blue - Milt Hinton
TTITLE1=Leete - Oscar Pettiford
TTITLE2=The Theme - Paul Chambers
TTITLE3=Honeysuckle Rose - Percy Heath
TTITLE4=Softly As In A Morning..." - Wilbur Ware
TTITLE5=Au Privave - Ray Brown
TTITLE6=Switch Blade - Charles Mingus
TTITLE7=Dat Dere - Steve Swallow
TTITLE8=Duet For Bass and Piano No.1 - Dave Holland
TTITLE9=Things ain't what they used..." - David Barard
TTITLE10=Blues In The Closet - Ron Carter
TTITLE11=Time And Tide - Charlie Haden
TTITLE12=Take Me Nowhere - Chris Wood
TTITLE13=Daten
EXTD=YEAR: 2004
EXTT0=
EXTT1=
EXTT2=
EXTT3=
EXTT4=
EXTT5=
EXTT6=
EXTT7=
EXTT8=
EXTT9=
EXTT10=
EXTT11=
EXTT12=
EXTT13=
PLAYORDER=
